<mxfile host="app.diagrams.net" agent="Mozilla/5.0 (Windows NT 10.0; Win64; x64) AppleWebKit/537.36 (KHTML, like Gecko) Chrome/128.0.0.0 Safari/537.36 OPR/114.0.0.0" version="24.8.6" pages="9">
  <diagram id="C5RBs43oDa-KdzZeNtuy" name="CU1">
    <mxGraphModel grid="1" page="1" gridSize="10" guides="1" tooltips="1" connect="1" arrows="1" fold="1" pageScale="1" pageWidth="827" pageHeight="1169" math="0" shadow="0">
      <root>
        <mxCell id="WIyWlLk6GJQsqaUBKTNV-0" />
        <mxCell id="WIyWlLk6GJQsqaUBKTNV-1" parent="WIyWlLk6GJQsqaUBKTNV-0" />
        <mxCell id="cS6vXyp-8unhH1qE7X0n-3" style="edgeStyle=orthogonalEdgeStyle;rounded=0;orthogonalLoop=1;jettySize=auto;html=1;" edge="1" parent="WIyWlLk6GJQsqaUBKTNV-1" source="WIyWlLk6GJQsqaUBKTNV-3" target="WIyWlLk6GJQsqaUBKTNV-7">
          <mxGeometry relative="1" as="geometry" />
        </mxCell>
        <mxCell id="WIyWlLk6GJQsqaUBKTNV-3" value="Hacer clic en &quot;&quot;Registrarse&quot;&#39;" style="rounded=1;whiteSpace=wrap;html=1;fontSize=12;glass=0;strokeWidth=1;shadow=0;" vertex="1" parent="WIyWlLk6GJQsqaUBKTNV-1">
          <mxGeometry x="160" y="80" width="120" height="40" as="geometry" />
        </mxCell>
        <mxCell id="cS6vXyp-8unhH1qE7X0n-2" style="edgeStyle=orthogonalEdgeStyle;rounded=0;orthogonalLoop=1;jettySize=auto;html=1;entryX=0.5;entryY=0;entryDx=0;entryDy=0;" edge="1" parent="WIyWlLk6GJQsqaUBKTNV-1" source="WIyWlLk6GJQsqaUBKTNV-7" target="WIyWlLk6GJQsqaUBKTNV-10">
          <mxGeometry relative="1" as="geometry" />
        </mxCell>
        <mxCell id="WIyWlLk6GJQsqaUBKTNV-7" value="Completar formulario de registro" style="rounded=1;whiteSpace=wrap;html=1;fontSize=12;glass=0;strokeWidth=1;shadow=0;" vertex="1" parent="WIyWlLk6GJQsqaUBKTNV-1">
          <mxGeometry x="160" y="150" width="120" height="40" as="geometry" />
        </mxCell>
        <mxCell id="cS6vXyp-8unhH1qE7X0n-4" style="edgeStyle=orthogonalEdgeStyle;rounded=0;orthogonalLoop=1;jettySize=auto;html=1;entryX=0;entryY=0.5;entryDx=0;entryDy=0;" edge="1" parent="WIyWlLk6GJQsqaUBKTNV-1" source="WIyWlLk6GJQsqaUBKTNV-10" target="WIyWlLk6GJQsqaUBKTNV-12">
          <mxGeometry relative="1" as="geometry">
            <mxPoint x="310" y="180" as="targetPoint" />
            <Array as="points">
              <mxPoint x="310" y="260" />
              <mxPoint x="310" y="260" />
            </Array>
          </mxGeometry>
        </mxCell>
        <mxCell id="cS6vXyp-8unhH1qE7X0n-5" value="No" style="edgeLabel;html=1;align=center;verticalAlign=middle;resizable=0;points=[];" connectable="0" vertex="1" parent="cS6vXyp-8unhH1qE7X0n-4">
          <mxGeometry x="-0.0227" y="-3" relative="1" as="geometry">
            <mxPoint x="1" y="-23" as="offset" />
          </mxGeometry>
        </mxCell>
        <mxCell id="cS6vXyp-8unhH1qE7X0n-22" style="edgeStyle=orthogonalEdgeStyle;rounded=0;orthogonalLoop=1;jettySize=auto;html=1;" edge="1" parent="WIyWlLk6GJQsqaUBKTNV-1" source="WIyWlLk6GJQsqaUBKTNV-10" target="WIyWlLk6GJQsqaUBKTNV-11">
          <mxGeometry relative="1" as="geometry" />
        </mxCell>
        <mxCell id="cS6vXyp-8unhH1qE7X0n-23" value="Sí" style="edgeLabel;html=1;align=center;verticalAlign=middle;resizable=0;points=[];" connectable="0" vertex="1" parent="cS6vXyp-8unhH1qE7X0n-22">
          <mxGeometry x="-0.1853" relative="1" as="geometry">
            <mxPoint x="20" y="-6" as="offset" />
          </mxGeometry>
        </mxCell>
        <mxCell id="WIyWlLk6GJQsqaUBKTNV-10" value="¿Datos correctos?" style="rhombus;whiteSpace=wrap;html=1;shadow=0;fontFamily=Helvetica;fontSize=12;align=center;strokeWidth=1;spacing=6;spacingTop=-4;" vertex="1" parent="WIyWlLk6GJQsqaUBKTNV-1">
          <mxGeometry x="170" y="220" width="100" height="80" as="geometry" />
        </mxCell>
        <mxCell id="cS6vXyp-8unhH1qE7X0n-25" value="" style="edgeStyle=orthogonalEdgeStyle;rounded=0;orthogonalLoop=1;jettySize=auto;html=1;" edge="1" parent="WIyWlLk6GJQsqaUBKTNV-1" source="WIyWlLk6GJQsqaUBKTNV-11" target="cS6vXyp-8unhH1qE7X0n-24">
          <mxGeometry relative="1" as="geometry" />
        </mxCell>
        <mxCell id="WIyWlLk6GJQsqaUBKTNV-11" value="Usuario registrado con éxito" style="rounded=1;whiteSpace=wrap;html=1;fontSize=12;glass=0;strokeWidth=1;shadow=0;" vertex="1" parent="WIyWlLk6GJQsqaUBKTNV-1">
          <mxGeometry x="160" y="340" width="120" height="40" as="geometry" />
        </mxCell>
        <mxCell id="cS6vXyp-8unhH1qE7X0n-6" style="edgeStyle=orthogonalEdgeStyle;rounded=0;orthogonalLoop=1;jettySize=auto;html=1;entryX=1;entryY=0.5;entryDx=0;entryDy=0;" edge="1" parent="WIyWlLk6GJQsqaUBKTNV-1" source="WIyWlLk6GJQsqaUBKTNV-12" target="WIyWlLk6GJQsqaUBKTNV-7">
          <mxGeometry relative="1" as="geometry">
            <Array as="points">
              <mxPoint x="390" y="170" />
            </Array>
          </mxGeometry>
        </mxCell>
        <mxCell id="WIyWlLk6GJQsqaUBKTNV-12" value="Mensaje de error" style="rounded=1;whiteSpace=wrap;html=1;fontSize=12;glass=0;strokeWidth=1;shadow=0;" vertex="1" parent="WIyWlLk6GJQsqaUBKTNV-1">
          <mxGeometry x="330" y="240" width="120" height="40" as="geometry" />
        </mxCell>
        <mxCell id="cS6vXyp-8unhH1qE7X0n-8" value="Caso de uso N°1" style="text;html=1;align=center;verticalAlign=middle;resizable=0;points=[];autosize=1;strokeColor=none;fillColor=none;" vertex="1" parent="WIyWlLk6GJQsqaUBKTNV-1">
          <mxGeometry width="110" height="30" as="geometry" />
        </mxCell>
        <mxCell id="cS6vXyp-8unhH1qE7X0n-13" style="edgeStyle=orthogonalEdgeStyle;rounded=0;orthogonalLoop=1;jettySize=auto;html=1;entryX=0.5;entryY=0;entryDx=0;entryDy=0;" edge="1" parent="WIyWlLk6GJQsqaUBKTNV-1" source="cS6vXyp-8unhH1qE7X0n-12" target="WIyWlLk6GJQsqaUBKTNV-3">
          <mxGeometry relative="1" as="geometry" />
        </mxCell>
        <mxCell id="cS6vXyp-8unhH1qE7X0n-12" value="" style="strokeWidth=2;html=1;shape=mxgraph.flowchart.start_2;whiteSpace=wrap;fillColor=#000000;" vertex="1" parent="WIyWlLk6GJQsqaUBKTNV-1">
          <mxGeometry x="210" y="30" width="20" height="20" as="geometry" />
        </mxCell>
        <mxCell id="cS6vXyp-8unhH1qE7X0n-18" value="&lt;p style=&quot;font-size: 11px;&quot;&gt;&lt;font style=&quot;font-size: 11px;&quot;&gt;La pantalla de registro incluye los siguientes campos:&lt;/font&gt;&lt;/p&gt;&lt;ul style=&quot;font-size: 11px;&quot;&gt;&lt;li style=&quot;&quot;&gt;&lt;font style=&quot;font-size: 11px;&quot;&gt;Nombre&lt;/font&gt;&lt;/li&gt;&lt;li style=&quot;&quot;&gt;&lt;font style=&quot;font-size: 11px;&quot;&gt;Apellido&lt;/font&gt;&lt;/li&gt;&lt;li style=&quot;&quot;&gt;&lt;font style=&quot;font-size: 11px;&quot;&gt;Nombre de usuario&lt;/font&gt;&lt;/li&gt;&lt;li style=&quot;&quot;&gt;&lt;font style=&quot;font-size: 11px;&quot;&gt;Correo electrónico&lt;/font&gt;&lt;/li&gt;&lt;li style=&quot;&quot;&gt;&lt;font style=&quot;font-size: 11px;&quot;&gt;Contraseña&lt;/font&gt;&lt;/li&gt;&lt;li style=&quot;&quot;&gt;&lt;font style=&quot;font-size: 11px;&quot;&gt;Confirmar contraseña&lt;/font&gt;&lt;/li&gt;&lt;/ul&gt;" style="shape=note;whiteSpace=wrap;html=1;backgroundOutline=1;darkOpacity=0.05;size=17;align=left;" vertex="1" parent="WIyWlLk6GJQsqaUBKTNV-1">
          <mxGeometry x="-30" y="90" width="140" height="160" as="geometry" />
        </mxCell>
        <mxCell id="cS6vXyp-8unhH1qE7X0n-21" value="" style="endArrow=none;dashed=1;html=1;dashPattern=1 3;strokeWidth=2;rounded=0;entryX=0;entryY=0.5;entryDx=0;entryDy=0;" edge="1" parent="WIyWlLk6GJQsqaUBKTNV-1" target="WIyWlLk6GJQsqaUBKTNV-7">
          <mxGeometry width="50" height="50" relative="1" as="geometry">
            <mxPoint x="121" y="170" as="sourcePoint" />
            <mxPoint x="280" y="180" as="targetPoint" />
          </mxGeometry>
        </mxCell>
        <mxCell id="cS6vXyp-8unhH1qE7X0n-24" value="Se navega a &quot;ReadyuseScreen&quot;" style="whiteSpace=wrap;html=1;rounded=1;glass=0;strokeWidth=1;shadow=0;" vertex="1" parent="WIyWlLk6GJQsqaUBKTNV-1">
          <mxGeometry x="160" y="450" width="120" height="40" as="geometry" />
        </mxCell>
        <mxCell id="cS6vXyp-8unhH1qE7X0n-27" value="" style="strokeWidth=2;html=1;shape=mxgraph.flowchart.start_2;whiteSpace=wrap;fillColor=#000000;" vertex="1" parent="WIyWlLk6GJQsqaUBKTNV-1">
          <mxGeometry x="210" y="520" width="20" height="20" as="geometry" />
        </mxCell>
        <mxCell id="cS6vXyp-8unhH1qE7X0n-28" style="edgeStyle=orthogonalEdgeStyle;rounded=0;orthogonalLoop=1;jettySize=auto;html=1;entryX=0.5;entryY=0;entryDx=0;entryDy=0;entryPerimeter=0;" edge="1" parent="WIyWlLk6GJQsqaUBKTNV-1" source="cS6vXyp-8unhH1qE7X0n-24" target="cS6vXyp-8unhH1qE7X0n-27">
          <mxGeometry relative="1" as="geometry" />
        </mxCell>
      </root>
    </mxGraphModel>
  </diagram>
  <diagram name="CU2" id="U60WIncIeAMI0-Yv6sS6">
    <mxGraphModel grid="1" page="1" gridSize="10" guides="1" tooltips="1" connect="1" arrows="1" fold="1" pageScale="1" pageWidth="827" pageHeight="1169" math="0" shadow="0">
      <root>
        <mxCell id="4uLtMLQyeRscT9fWFy9n-0" />
        <mxCell id="4uLtMLQyeRscT9fWFy9n-1" parent="4uLtMLQyeRscT9fWFy9n-0" />
        <mxCell id="4uLtMLQyeRscT9fWFy9n-2" style="edgeStyle=orthogonalEdgeStyle;rounded=0;orthogonalLoop=1;jettySize=auto;html=1;" parent="4uLtMLQyeRscT9fWFy9n-1" source="4uLtMLQyeRscT9fWFy9n-3" target="4uLtMLQyeRscT9fWFy9n-5" edge="1">
          <mxGeometry relative="1" as="geometry" />
        </mxCell>
        <mxCell id="4uLtMLQyeRscT9fWFy9n-3" value="Hacer clic en &quot;&quot;Iniciar sesión&quot;&#39;" style="rounded=1;whiteSpace=wrap;html=1;fontSize=12;glass=0;strokeWidth=1;shadow=0;" parent="4uLtMLQyeRscT9fWFy9n-1" vertex="1">
          <mxGeometry x="160" y="80" width="120" height="40" as="geometry" />
        </mxCell>
        <mxCell id="4uLtMLQyeRscT9fWFy9n-4" style="edgeStyle=orthogonalEdgeStyle;rounded=0;orthogonalLoop=1;jettySize=auto;html=1;entryX=0.5;entryY=0;entryDx=0;entryDy=0;" parent="4uLtMLQyeRscT9fWFy9n-1" source="4uLtMLQyeRscT9fWFy9n-5" target="4uLtMLQyeRscT9fWFy9n-10" edge="1">
          <mxGeometry relative="1" as="geometry" />
        </mxCell>
        <mxCell id="4uLtMLQyeRscT9fWFy9n-5" value="Completar formulario de inicio de sesión" style="rounded=1;whiteSpace=wrap;html=1;fontSize=12;glass=0;strokeWidth=1;shadow=0;" parent="4uLtMLQyeRscT9fWFy9n-1" vertex="1">
          <mxGeometry x="160" y="150" width="120" height="40" as="geometry" />
        </mxCell>
        <mxCell id="4uLtMLQyeRscT9fWFy9n-6" style="edgeStyle=orthogonalEdgeStyle;rounded=0;orthogonalLoop=1;jettySize=auto;html=1;entryX=0;entryY=0.5;entryDx=0;entryDy=0;" parent="4uLtMLQyeRscT9fWFy9n-1" source="4uLtMLQyeRscT9fWFy9n-10" target="4uLtMLQyeRscT9fWFy9n-14" edge="1">
          <mxGeometry relative="1" as="geometry">
            <mxPoint x="310" y="180" as="targetPoint" />
            <Array as="points">
              <mxPoint x="310" y="260" />
              <mxPoint x="310" y="260" />
            </Array>
          </mxGeometry>
        </mxCell>
        <mxCell id="4uLtMLQyeRscT9fWFy9n-7" value="No" style="edgeLabel;html=1;align=center;verticalAlign=middle;resizable=0;points=[];" parent="4uLtMLQyeRscT9fWFy9n-6" vertex="1" connectable="0">
          <mxGeometry x="-0.0227" y="-3" relative="1" as="geometry">
            <mxPoint x="1" y="-23" as="offset" />
          </mxGeometry>
        </mxCell>
        <mxCell id="4uLtMLQyeRscT9fWFy9n-8" style="edgeStyle=orthogonalEdgeStyle;rounded=0;orthogonalLoop=1;jettySize=auto;html=1;" parent="4uLtMLQyeRscT9fWFy9n-1" source="4uLtMLQyeRscT9fWFy9n-10" target="4uLtMLQyeRscT9fWFy9n-12" edge="1">
          <mxGeometry relative="1" as="geometry" />
        </mxCell>
        <mxCell id="4uLtMLQyeRscT9fWFy9n-9" value="Sí" style="edgeLabel;html=1;align=center;verticalAlign=middle;resizable=0;points=[];" parent="4uLtMLQyeRscT9fWFy9n-8" vertex="1" connectable="0">
          <mxGeometry x="-0.1853" relative="1" as="geometry">
            <mxPoint x="20" y="-6" as="offset" />
          </mxGeometry>
        </mxCell>
        <mxCell id="4uLtMLQyeRscT9fWFy9n-10" value="¿Datos correctos?" style="rhombus;whiteSpace=wrap;html=1;shadow=0;fontFamily=Helvetica;fontSize=12;align=center;strokeWidth=1;spacing=6;spacingTop=-4;" parent="4uLtMLQyeRscT9fWFy9n-1" vertex="1">
          <mxGeometry x="170" y="220" width="100" height="80" as="geometry" />
        </mxCell>
        <mxCell id="4uLtMLQyeRscT9fWFy9n-11" value="" style="edgeStyle=orthogonalEdgeStyle;rounded=0;orthogonalLoop=1;jettySize=auto;html=1;" parent="4uLtMLQyeRscT9fWFy9n-1" source="4uLtMLQyeRscT9fWFy9n-12" target="4uLtMLQyeRscT9fWFy9n-20" edge="1">
          <mxGeometry relative="1" as="geometry" />
        </mxCell>
        <mxCell id="4uLtMLQyeRscT9fWFy9n-12" value="Se inicia sesión correctamente" style="rounded=1;whiteSpace=wrap;html=1;fontSize=12;glass=0;strokeWidth=1;shadow=0;" parent="4uLtMLQyeRscT9fWFy9n-1" vertex="1">
          <mxGeometry x="160" y="340" width="120" height="40" as="geometry" />
        </mxCell>
        <mxCell id="4uLtMLQyeRscT9fWFy9n-13" style="edgeStyle=orthogonalEdgeStyle;rounded=0;orthogonalLoop=1;jettySize=auto;html=1;entryX=1;entryY=0.5;entryDx=0;entryDy=0;" parent="4uLtMLQyeRscT9fWFy9n-1" source="4uLtMLQyeRscT9fWFy9n-14" target="4uLtMLQyeRscT9fWFy9n-5" edge="1">
          <mxGeometry relative="1" as="geometry">
            <Array as="points">
              <mxPoint x="390" y="170" />
            </Array>
          </mxGeometry>
        </mxCell>
        <mxCell id="4uLtMLQyeRscT9fWFy9n-14" value="Mensaje de error" style="rounded=1;whiteSpace=wrap;html=1;fontSize=12;glass=0;strokeWidth=1;shadow=0;" parent="4uLtMLQyeRscT9fWFy9n-1" vertex="1">
          <mxGeometry x="330" y="240" width="120" height="40" as="geometry" />
        </mxCell>
        <mxCell id="4uLtMLQyeRscT9fWFy9n-15" value="Caso de uso N°2" style="text;html=1;align=center;verticalAlign=middle;resizable=0;points=[];autosize=1;strokeColor=none;fillColor=none;" parent="4uLtMLQyeRscT9fWFy9n-1" vertex="1">
          <mxGeometry width="110" height="30" as="geometry" />
        </mxCell>
        <mxCell id="4uLtMLQyeRscT9fWFy9n-16" style="edgeStyle=orthogonalEdgeStyle;rounded=0;orthogonalLoop=1;jettySize=auto;html=1;entryX=0.5;entryY=0;entryDx=0;entryDy=0;" parent="4uLtMLQyeRscT9fWFy9n-1" source="4uLtMLQyeRscT9fWFy9n-17" target="4uLtMLQyeRscT9fWFy9n-3" edge="1">
          <mxGeometry relative="1" as="geometry" />
        </mxCell>
        <mxCell id="4uLtMLQyeRscT9fWFy9n-17" value="" style="strokeWidth=2;html=1;shape=mxgraph.flowchart.start_2;whiteSpace=wrap;fillColor=#000000;" parent="4uLtMLQyeRscT9fWFy9n-1" vertex="1">
          <mxGeometry x="210" y="30" width="20" height="20" as="geometry" />
        </mxCell>
        <mxCell id="4uLtMLQyeRscT9fWFy9n-18" value="&lt;p style=&quot;font-size: 11px;&quot;&gt;Aparece una pantalla con los campos de credenciales:&lt;/p&gt;&lt;ul&gt;&lt;li&gt;Correo electrónico.&lt;/li&gt;&lt;li&gt;Contraseña.&lt;/li&gt;&lt;/ul&gt;" style="shape=note;whiteSpace=wrap;html=1;backgroundOutline=1;darkOpacity=0.05;size=17;align=left;" parent="4uLtMLQyeRscT9fWFy9n-1" vertex="1">
          <mxGeometry x="-30" y="90" width="140" height="160" as="geometry" />
        </mxCell>
        <mxCell id="4uLtMLQyeRscT9fWFy9n-19" value="" style="endArrow=none;dashed=1;html=1;dashPattern=1 3;strokeWidth=2;rounded=0;entryX=0;entryY=0.5;entryDx=0;entryDy=0;" parent="4uLtMLQyeRscT9fWFy9n-1" target="4uLtMLQyeRscT9fWFy9n-5" edge="1">
          <mxGeometry width="50" height="50" relative="1" as="geometry">
            <mxPoint x="121" y="170" as="sourcePoint" />
            <mxPoint x="280" y="180" as="targetPoint" />
          </mxGeometry>
        </mxCell>
        <mxCell id="4uLtMLQyeRscT9fWFy9n-20" value="Se navega a &quot;ReadyuseScreen&quot;" style="whiteSpace=wrap;html=1;rounded=1;glass=0;strokeWidth=1;shadow=0;" parent="4uLtMLQyeRscT9fWFy9n-1" vertex="1">
          <mxGeometry x="160" y="450" width="120" height="40" as="geometry" />
        </mxCell>
        <mxCell id="4uLtMLQyeRscT9fWFy9n-21" value="" style="strokeWidth=2;html=1;shape=mxgraph.flowchart.start_2;whiteSpace=wrap;fillColor=#000000;" parent="4uLtMLQyeRscT9fWFy9n-1" vertex="1">
          <mxGeometry x="210" y="520" width="20" height="20" as="geometry" />
        </mxCell>
        <mxCell id="4uLtMLQyeRscT9fWFy9n-22" style="edgeStyle=orthogonalEdgeStyle;rounded=0;orthogonalLoop=1;jettySize=auto;html=1;entryX=0.5;entryY=0;entryDx=0;entryDy=0;entryPerimeter=0;" parent="4uLtMLQyeRscT9fWFy9n-1" source="4uLtMLQyeRscT9fWFy9n-20" target="4uLtMLQyeRscT9fWFy9n-21" edge="1">
          <mxGeometry relative="1" as="geometry" />
        </mxCell>
      </root>
    </mxGraphModel>
  </diagram>
  <diagram name="CU3" id="9k-SmtLhEQmy5yZxBb3y">
    <mxGraphModel grid="1" page="1" gridSize="10" guides="1" tooltips="1" connect="1" arrows="1" fold="1" pageScale="1" pageWidth="827" pageHeight="1169" math="0" shadow="0">
      <root>
        <mxCell id="pLjznHTSK2CyX4MpKAAT-0" />
        <mxCell id="pLjznHTSK2CyX4MpKAAT-1" parent="pLjznHTSK2CyX4MpKAAT-0" />
        <mxCell id="pLjznHTSK2CyX4MpKAAT-2" style="edgeStyle=orthogonalEdgeStyle;rounded=0;orthogonalLoop=1;jettySize=auto;html=1;" parent="pLjznHTSK2CyX4MpKAAT-1" source="pLjznHTSK2CyX4MpKAAT-3" target="pLjznHTSK2CyX4MpKAAT-5" edge="1">
          <mxGeometry relative="1" as="geometry" />
        </mxCell>
        <mxCell id="pLjznHTSK2CyX4MpKAAT-3" value="Hacer click en &quot;&quot;Iniciar sesión&quot;&#39;" style="rounded=1;whiteSpace=wrap;html=1;fontSize=12;glass=0;strokeWidth=1;shadow=0;" parent="pLjznHTSK2CyX4MpKAAT-1" vertex="1">
          <mxGeometry x="160" y="80" width="120" height="40" as="geometry" />
        </mxCell>
        <mxCell id="xmMH--7c0nkO12i7gHKa-0" style="edgeStyle=orthogonalEdgeStyle;rounded=0;orthogonalLoop=1;jettySize=auto;html=1;entryX=0.5;entryY=0;entryDx=0;entryDy=0;" edge="1" parent="pLjznHTSK2CyX4MpKAAT-1" source="pLjznHTSK2CyX4MpKAAT-5" target="pLjznHTSK2CyX4MpKAAT-10">
          <mxGeometry relative="1" as="geometry" />
        </mxCell>
        <mxCell id="pLjznHTSK2CyX4MpKAAT-5" value="&lt;font style=&quot;font-size: 11px;&quot;&gt;Hacer click en:&amp;nbsp; &quot;¿Olvidaste tu contraseña?&quot;&lt;/font&gt;" style="rounded=1;whiteSpace=wrap;html=1;fontSize=12;glass=0;strokeWidth=1;shadow=0;" parent="pLjznHTSK2CyX4MpKAAT-1" vertex="1">
          <mxGeometry x="150" y="150" width="140" height="40" as="geometry" />
        </mxCell>
        <mxCell id="pLjznHTSK2CyX4MpKAAT-8" style="edgeStyle=orthogonalEdgeStyle;rounded=0;orthogonalLoop=1;jettySize=auto;html=1;" parent="pLjznHTSK2CyX4MpKAAT-1" source="pLjznHTSK2CyX4MpKAAT-10" target="pLjznHTSK2CyX4MpKAAT-12" edge="1">
          <mxGeometry relative="1" as="geometry" />
        </mxCell>
        <mxCell id="pLjznHTSK2CyX4MpKAAT-9" value="Sí" style="edgeLabel;html=1;align=center;verticalAlign=middle;resizable=0;points=[];" parent="pLjznHTSK2CyX4MpKAAT-8" vertex="1" connectable="0">
          <mxGeometry x="-0.1853" relative="1" as="geometry">
            <mxPoint x="20" y="-6" as="offset" />
          </mxGeometry>
        </mxCell>
        <mxCell id="xmMH--7c0nkO12i7gHKa-1" style="edgeStyle=orthogonalEdgeStyle;rounded=0;orthogonalLoop=1;jettySize=auto;html=1;" edge="1" parent="pLjznHTSK2CyX4MpKAAT-1" source="pLjznHTSK2CyX4MpKAAT-10" target="pLjznHTSK2CyX4MpKAAT-14">
          <mxGeometry relative="1" as="geometry" />
        </mxCell>
        <mxCell id="xmMH--7c0nkO12i7gHKa-3" value="No" style="edgeLabel;html=1;align=center;verticalAlign=middle;resizable=0;points=[];" connectable="0" vertex="1" parent="xmMH--7c0nkO12i7gHKa-1">
          <mxGeometry x="-0.3354" y="-1" relative="1" as="geometry">
            <mxPoint y="-21" as="offset" />
          </mxGeometry>
        </mxCell>
        <mxCell id="pLjznHTSK2CyX4MpKAAT-10" value="&lt;font style=&quot;font-size: 10px;&quot;&gt;¿El correo existe?&lt;/font&gt;" style="rhombus;whiteSpace=wrap;html=1;shadow=0;fontFamily=Helvetica;fontSize=12;align=center;strokeWidth=1;spacing=6;spacingTop=-4;" parent="pLjznHTSK2CyX4MpKAAT-1" vertex="1">
          <mxGeometry x="170" y="220" width="100" height="80" as="geometry" />
        </mxCell>
        <mxCell id="pLjznHTSK2CyX4MpKAAT-11" value="" style="edgeStyle=orthogonalEdgeStyle;rounded=0;orthogonalLoop=1;jettySize=auto;html=1;" parent="pLjznHTSK2CyX4MpKAAT-1" source="pLjznHTSK2CyX4MpKAAT-12" target="pLjznHTSK2CyX4MpKAAT-20" edge="1">
          <mxGeometry relative="1" as="geometry" />
        </mxCell>
        <mxCell id="pLjznHTSK2CyX4MpKAAT-12" value="&lt;font style=&quot;font-size: 11px;&quot;&gt;El sistema notifica que se envió un mensaje al correo&amp;nbsp;&lt;/font&gt;" style="rounded=1;whiteSpace=wrap;html=1;fontSize=12;glass=0;strokeWidth=1;shadow=0;" parent="pLjznHTSK2CyX4MpKAAT-1" vertex="1">
          <mxGeometry x="155" y="340" width="130" height="50" as="geometry" />
        </mxCell>
        <mxCell id="xmMH--7c0nkO12i7gHKa-2" style="edgeStyle=orthogonalEdgeStyle;rounded=0;orthogonalLoop=1;jettySize=auto;html=1;entryX=1;entryY=0.5;entryDx=0;entryDy=0;" edge="1" parent="pLjznHTSK2CyX4MpKAAT-1" source="pLjznHTSK2CyX4MpKAAT-14" target="pLjznHTSK2CyX4MpKAAT-5">
          <mxGeometry relative="1" as="geometry">
            <Array as="points">
              <mxPoint x="390" y="170" />
            </Array>
          </mxGeometry>
        </mxCell>
        <mxCell id="pLjznHTSK2CyX4MpKAAT-14" value="Mensaje de error" style="rounded=1;whiteSpace=wrap;html=1;fontSize=12;glass=0;strokeWidth=1;shadow=0;" parent="pLjznHTSK2CyX4MpKAAT-1" vertex="1">
          <mxGeometry x="330" y="240" width="120" height="40" as="geometry" />
        </mxCell>
        <mxCell id="pLjznHTSK2CyX4MpKAAT-15" value="Caso de uso N°3" style="text;html=1;align=center;verticalAlign=middle;resizable=0;points=[];autosize=1;strokeColor=none;fillColor=none;" parent="pLjznHTSK2CyX4MpKAAT-1" vertex="1">
          <mxGeometry width="110" height="30" as="geometry" />
        </mxCell>
        <mxCell id="pLjznHTSK2CyX4MpKAAT-16" style="edgeStyle=orthogonalEdgeStyle;rounded=0;orthogonalLoop=1;jettySize=auto;html=1;entryX=0.5;entryY=0;entryDx=0;entryDy=0;" parent="pLjznHTSK2CyX4MpKAAT-1" source="pLjznHTSK2CyX4MpKAAT-17" target="pLjznHTSK2CyX4MpKAAT-3" edge="1">
          <mxGeometry relative="1" as="geometry" />
        </mxCell>
        <mxCell id="pLjznHTSK2CyX4MpKAAT-17" value="" style="strokeWidth=2;html=1;shape=mxgraph.flowchart.start_2;whiteSpace=wrap;fillColor=#000000;" parent="pLjznHTSK2CyX4MpKAAT-1" vertex="1">
          <mxGeometry x="210" y="30" width="20" height="20" as="geometry" />
        </mxCell>
        <mxCell id="xmMH--7c0nkO12i7gHKa-5" value="" style="edgeStyle=orthogonalEdgeStyle;rounded=0;orthogonalLoop=1;jettySize=auto;html=1;" edge="1" parent="pLjznHTSK2CyX4MpKAAT-1" source="pLjznHTSK2CyX4MpKAAT-20" target="xmMH--7c0nkO12i7gHKa-4">
          <mxGeometry relative="1" as="geometry" />
        </mxCell>
        <mxCell id="pLjznHTSK2CyX4MpKAAT-20" value="Usuario abre el correo, selecciona el enlace de recuperación y es redirigido a una pantalla de cambio de contraseña." style="whiteSpace=wrap;html=1;rounded=1;glass=0;strokeWidth=1;shadow=0;" parent="pLjznHTSK2CyX4MpKAAT-1" vertex="1">
          <mxGeometry x="135" y="420" width="170" height="110" as="geometry" />
        </mxCell>
        <mxCell id="pLjznHTSK2CyX4MpKAAT-21" value="" style="strokeWidth=2;html=1;shape=mxgraph.flowchart.start_2;whiteSpace=wrap;fillColor=#000000;" parent="pLjznHTSK2CyX4MpKAAT-1" vertex="1">
          <mxGeometry x="210" y="830" width="20" height="20" as="geometry" />
        </mxCell>
        <mxCell id="xmMH--7c0nkO12i7gHKa-15" style="edgeStyle=orthogonalEdgeStyle;rounded=0;orthogonalLoop=1;jettySize=auto;html=1;entryX=0.5;entryY=0;entryDx=0;entryDy=0;" edge="1" parent="pLjznHTSK2CyX4MpKAAT-1" source="xmMH--7c0nkO12i7gHKa-4" target="xmMH--7c0nkO12i7gHKa-14">
          <mxGeometry relative="1" as="geometry" />
        </mxCell>
        <mxCell id="xmMH--7c0nkO12i7gHKa-4" value="Usuario ingresa una nueva contraseña y la confirma." style="whiteSpace=wrap;html=1;rounded=1;glass=0;strokeWidth=1;shadow=0;" vertex="1" parent="pLjznHTSK2CyX4MpKAAT-1">
          <mxGeometry x="160" y="555" width="120" height="60" as="geometry" />
        </mxCell>
        <mxCell id="xmMH--7c0nkO12i7gHKa-18" style="edgeStyle=orthogonalEdgeStyle;rounded=0;orthogonalLoop=1;jettySize=auto;html=1;entryX=0;entryY=0.5;entryDx=0;entryDy=0;" edge="1" parent="pLjznHTSK2CyX4MpKAAT-1" source="xmMH--7c0nkO12i7gHKa-14" target="xmMH--7c0nkO12i7gHKa-17">
          <mxGeometry relative="1" as="geometry" />
        </mxCell>
        <mxCell id="xmMH--7c0nkO12i7gHKa-25" style="edgeStyle=orthogonalEdgeStyle;rounded=0;orthogonalLoop=1;jettySize=auto;html=1;entryX=0.5;entryY=0;entryDx=0;entryDy=0;" edge="1" parent="pLjznHTSK2CyX4MpKAAT-1" source="xmMH--7c0nkO12i7gHKa-14" target="xmMH--7c0nkO12i7gHKa-24">
          <mxGeometry relative="1" as="geometry" />
        </mxCell>
        <mxCell id="xmMH--7c0nkO12i7gHKa-14" value="&lt;span style=&quot;font-size: 10px;&quot;&gt;¿La contraseña es segura?&lt;/span&gt;" style="rhombus;whiteSpace=wrap;html=1;shadow=0;fontFamily=Helvetica;fontSize=12;align=center;strokeWidth=1;spacing=6;spacingTop=-4;" vertex="1" parent="pLjznHTSK2CyX4MpKAAT-1">
          <mxGeometry x="160" y="640" width="120" height="80" as="geometry" />
        </mxCell>
        <mxCell id="xmMH--7c0nkO12i7gHKa-16" value="No" style="edgeLabel;html=1;align=center;verticalAlign=middle;resizable=0;points=[];" connectable="0" vertex="1" parent="pLjznHTSK2CyX4MpKAAT-1">
          <mxGeometry x="290" y="660" as="geometry" />
        </mxCell>
        <mxCell id="xmMH--7c0nkO12i7gHKa-19" style="edgeStyle=orthogonalEdgeStyle;rounded=0;orthogonalLoop=1;jettySize=auto;html=1;entryX=1;entryY=0.5;entryDx=0;entryDy=0;" edge="1" parent="pLjznHTSK2CyX4MpKAAT-1" source="xmMH--7c0nkO12i7gHKa-17" target="xmMH--7c0nkO12i7gHKa-4">
          <mxGeometry relative="1" as="geometry">
            <Array as="points">
              <mxPoint x="390" y="585" />
            </Array>
          </mxGeometry>
        </mxCell>
        <mxCell id="xmMH--7c0nkO12i7gHKa-17" value="Mensaje de error" style="rounded=1;whiteSpace=wrap;html=1;fontSize=12;glass=0;strokeWidth=1;shadow=0;" vertex="1" parent="pLjznHTSK2CyX4MpKAAT-1">
          <mxGeometry x="330" y="660" width="120" height="40" as="geometry" />
        </mxCell>
        <mxCell id="xmMH--7c0nkO12i7gHKa-28" style="edgeStyle=orthogonalEdgeStyle;rounded=0;orthogonalLoop=1;jettySize=auto;html=1;" edge="1" parent="pLjznHTSK2CyX4MpKAAT-1" source="xmMH--7c0nkO12i7gHKa-24" target="pLjznHTSK2CyX4MpKAAT-21">
          <mxGeometry relative="1" as="geometry" />
        </mxCell>
        <mxCell id="xmMH--7c0nkO12i7gHKa-24" value="Contraseña cambiada con exito" style="whiteSpace=wrap;html=1;rounded=1;glass=0;strokeWidth=1;shadow=0;" vertex="1" parent="pLjznHTSK2CyX4MpKAAT-1">
          <mxGeometry x="160" y="750" width="120" height="60" as="geometry" />
        </mxCell>
      </root>
    </mxGraphModel>
  </diagram>
  <diagram name="CU6" id="lAnjxxKj75PfW_BTzxbO">
    <mxGraphModel grid="1" page="1" gridSize="10" guides="1" tooltips="1" connect="1" arrows="1" fold="1" pageScale="1" pageWidth="827" pageHeight="1169" math="0" shadow="0">
      <root>
        <mxCell id="uBrB1XqXVofArpdhMEqw-0" />
        <mxCell id="uBrB1XqXVofArpdhMEqw-1" parent="uBrB1XqXVofArpdhMEqw-0" />
        <mxCell id="uBrB1XqXVofArpdhMEqw-2" style="edgeStyle=orthogonalEdgeStyle;rounded=0;orthogonalLoop=1;jettySize=auto;html=1;" parent="uBrB1XqXVofArpdhMEqw-1" source="uBrB1XqXVofArpdhMEqw-3" target="uBrB1XqXVofArpdhMEqw-5" edge="1">
          <mxGeometry relative="1" as="geometry" />
        </mxCell>
        <mxCell id="uBrB1XqXVofArpdhMEqw-3" value="Iniciar sesión" style="rounded=1;whiteSpace=wrap;html=1;fontSize=12;glass=0;strokeWidth=1;shadow=0;" parent="uBrB1XqXVofArpdhMEqw-1" vertex="1">
          <mxGeometry x="160" y="80" width="120" height="40" as="geometry" />
        </mxCell>
        <mxCell id="vNlEWPyg3t0nGP1uu4H9-1" value="" style="edgeStyle=orthogonalEdgeStyle;rounded=0;orthogonalLoop=1;jettySize=auto;html=1;" edge="1" parent="uBrB1XqXVofArpdhMEqw-1" source="uBrB1XqXVofArpdhMEqw-5" target="vNlEWPyg3t0nGP1uu4H9-0">
          <mxGeometry relative="1" as="geometry" />
        </mxCell>
        <mxCell id="uBrB1XqXVofArpdhMEqw-5" value="Hacer click en &quot;Ver perfil&quot;" style="rounded=1;whiteSpace=wrap;html=1;fontSize=12;glass=0;strokeWidth=1;shadow=0;" parent="uBrB1XqXVofArpdhMEqw-1" vertex="1">
          <mxGeometry x="150" y="150" width="140" height="40" as="geometry" />
        </mxCell>
        <mxCell id="uBrB1XqXVofArpdhMEqw-6" style="edgeStyle=orthogonalEdgeStyle;rounded=0;orthogonalLoop=1;jettySize=auto;html=1;" parent="uBrB1XqXVofArpdhMEqw-1" source="uBrB1XqXVofArpdhMEqw-10" edge="1">
          <mxGeometry relative="1" as="geometry">
            <mxPoint x="220" y="470" as="targetPoint" />
          </mxGeometry>
        </mxCell>
        <mxCell id="uBrB1XqXVofArpdhMEqw-7" value="Sí" style="edgeLabel;html=1;align=center;verticalAlign=middle;resizable=0;points=[];" parent="uBrB1XqXVofArpdhMEqw-6" vertex="1" connectable="0">
          <mxGeometry x="-0.1853" relative="1" as="geometry">
            <mxPoint x="20" y="4" as="offset" />
          </mxGeometry>
        </mxCell>
        <mxCell id="uBrB1XqXVofArpdhMEqw-8" style="edgeStyle=orthogonalEdgeStyle;rounded=0;orthogonalLoop=1;jettySize=auto;html=1;" parent="uBrB1XqXVofArpdhMEqw-1" source="uBrB1XqXVofArpdhMEqw-10" target="uBrB1XqXVofArpdhMEqw-14" edge="1">
          <mxGeometry relative="1" as="geometry" />
        </mxCell>
        <mxCell id="uBrB1XqXVofArpdhMEqw-9" value="No" style="edgeLabel;html=1;align=center;verticalAlign=middle;resizable=0;points=[];" parent="uBrB1XqXVofArpdhMEqw-8" vertex="1" connectable="0">
          <mxGeometry x="-0.3354" y="-1" relative="1" as="geometry">
            <mxPoint y="-21" as="offset" />
          </mxGeometry>
        </mxCell>
        <mxCell id="uBrB1XqXVofArpdhMEqw-10" value="&lt;font style=&quot;font-size: 9px;&quot;&gt;¿La contraseña actual es correcta?&lt;/font&gt;" style="rhombus;whiteSpace=wrap;html=1;shadow=0;fontFamily=Helvetica;fontSize=12;align=center;strokeWidth=1;spacing=6;spacingTop=-4;" parent="uBrB1XqXVofArpdhMEqw-1" vertex="1">
          <mxGeometry x="160" y="350" width="120" height="90" as="geometry" />
        </mxCell>
        <mxCell id="6EBKuIwhhkGmUyU1euO5-3" style="edgeStyle=orthogonalEdgeStyle;rounded=0;orthogonalLoop=1;jettySize=auto;html=1;entryX=1;entryY=0.5;entryDx=0;entryDy=0;" edge="1" parent="uBrB1XqXVofArpdhMEqw-1" source="uBrB1XqXVofArpdhMEqw-14" target="6EBKuIwhhkGmUyU1euO5-0">
          <mxGeometry relative="1" as="geometry">
            <Array as="points">
              <mxPoint x="400" y="305" />
            </Array>
          </mxGeometry>
        </mxCell>
        <mxCell id="uBrB1XqXVofArpdhMEqw-14" value="Mensaje de error" style="rounded=1;whiteSpace=wrap;html=1;fontSize=12;glass=0;strokeWidth=1;shadow=0;" parent="uBrB1XqXVofArpdhMEqw-1" vertex="1">
          <mxGeometry x="340" y="375" width="120" height="40" as="geometry" />
        </mxCell>
        <mxCell id="uBrB1XqXVofArpdhMEqw-15" value="Caso de uso N°6" style="text;html=1;align=center;verticalAlign=middle;resizable=0;points=[];autosize=1;strokeColor=none;fillColor=none;" parent="uBrB1XqXVofArpdhMEqw-1" vertex="1">
          <mxGeometry width="110" height="30" as="geometry" />
        </mxCell>
        <mxCell id="uBrB1XqXVofArpdhMEqw-16" style="edgeStyle=orthogonalEdgeStyle;rounded=0;orthogonalLoop=1;jettySize=auto;html=1;entryX=0.5;entryY=0;entryDx=0;entryDy=0;" parent="uBrB1XqXVofArpdhMEqw-1" source="uBrB1XqXVofArpdhMEqw-17" target="uBrB1XqXVofArpdhMEqw-3" edge="1">
          <mxGeometry relative="1" as="geometry" />
        </mxCell>
        <mxCell id="uBrB1XqXVofArpdhMEqw-17" value="" style="strokeWidth=2;html=1;shape=mxgraph.flowchart.start_2;whiteSpace=wrap;fillColor=#000000;" parent="uBrB1XqXVofArpdhMEqw-1" vertex="1">
          <mxGeometry x="210" y="30" width="20" height="20" as="geometry" />
        </mxCell>
        <mxCell id="uBrB1XqXVofArpdhMEqw-20" value="" style="strokeWidth=2;html=1;shape=mxgraph.flowchart.start_2;whiteSpace=wrap;fillColor=#000000;" parent="uBrB1XqXVofArpdhMEqw-1" vertex="1">
          <mxGeometry x="320" y="730" width="20" height="20" as="geometry" />
        </mxCell>
        <mxCell id="uBrB1XqXVofArpdhMEqw-22" value="Contraseña actualizada con éxito" style="whiteSpace=wrap;html=1;rounded=1;glass=0;strokeWidth=1;shadow=0;" parent="uBrB1XqXVofArpdhMEqw-1" vertex="1">
          <mxGeometry x="160" y="710" width="120" height="60" as="geometry" />
        </mxCell>
        <mxCell id="6EBKuIwhhkGmUyU1euO5-1" value="" style="edgeStyle=orthogonalEdgeStyle;rounded=0;orthogonalLoop=1;jettySize=auto;html=1;" edge="1" parent="uBrB1XqXVofArpdhMEqw-1" source="vNlEWPyg3t0nGP1uu4H9-0" target="6EBKuIwhhkGmUyU1euO5-0">
          <mxGeometry relative="1" as="geometry" />
        </mxCell>
        <mxCell id="vNlEWPyg3t0nGP1uu4H9-0" value="Seleccionar opción: &quot;Cambiar contraseña&quot;" style="whiteSpace=wrap;html=1;rounded=1;glass=0;strokeWidth=1;shadow=0;" vertex="1" parent="uBrB1XqXVofArpdhMEqw-1">
          <mxGeometry x="150" y="220" width="140" height="40" as="geometry" />
        </mxCell>
        <mxCell id="Z9rvTgwk-5es_M5e575S-0" value="&#xa;&lt;p&gt; Aparece una pantalla con los siguientes campos:&lt;/p&gt;&lt;ul&gt;&lt;li&gt;Contraseña actual.&lt;/li&gt;&lt;li&gt;Nueva contraseña.&lt;/li&gt;&lt;li&gt;Confirmar nueva contraseña.&lt;/li&gt;&lt;/ul&gt;&#xa;&#xa;" style="shape=note;whiteSpace=wrap;html=1;backgroundOutline=1;darkOpacity=0.05;size=17;align=left;" vertex="1" parent="uBrB1XqXVofArpdhMEqw-1">
          <mxGeometry x="-30" y="155" width="140" height="170" as="geometry" />
        </mxCell>
        <mxCell id="Z9rvTgwk-5es_M5e575S-2" value="" style="endArrow=none;dashed=1;html=1;rounded=0;exitX=0.995;exitY=0.502;exitDx=0;exitDy=0;exitPerimeter=0;" edge="1" parent="uBrB1XqXVofArpdhMEqw-1" source="Z9rvTgwk-5es_M5e575S-0" target="vNlEWPyg3t0nGP1uu4H9-0">
          <mxGeometry width="50" height="50" relative="1" as="geometry">
            <mxPoint x="240" y="200" as="sourcePoint" />
            <mxPoint x="290" y="150" as="targetPoint" />
          </mxGeometry>
        </mxCell>
        <mxCell id="6EBKuIwhhkGmUyU1euO5-2" style="edgeStyle=orthogonalEdgeStyle;rounded=0;orthogonalLoop=1;jettySize=auto;html=1;entryX=0.5;entryY=0;entryDx=0;entryDy=0;" edge="1" parent="uBrB1XqXVofArpdhMEqw-1" source="6EBKuIwhhkGmUyU1euO5-0" target="uBrB1XqXVofArpdhMEqw-10">
          <mxGeometry relative="1" as="geometry" />
        </mxCell>
        <mxCell id="6EBKuIwhhkGmUyU1euO5-0" value="Completar campos y seleccionar: &quot;Guardar cambios&lt;span style=&quot;background-color: initial;&quot;&gt;&quot;&lt;/span&gt;" style="whiteSpace=wrap;html=1;rounded=1;glass=0;strokeWidth=1;shadow=0;" vertex="1" parent="uBrB1XqXVofArpdhMEqw-1">
          <mxGeometry x="150" y="280" width="140" height="50" as="geometry" />
        </mxCell>
        <mxCell id="6EBKuIwhhkGmUyU1euO5-5" style="edgeStyle=orthogonalEdgeStyle;rounded=0;orthogonalLoop=1;jettySize=auto;html=1;entryX=0.5;entryY=1;entryDx=0;entryDy=0;" edge="1" parent="uBrB1XqXVofArpdhMEqw-1" source="6EBKuIwhhkGmUyU1euO5-4" target="uBrB1XqXVofArpdhMEqw-14">
          <mxGeometry relative="1" as="geometry" />
        </mxCell>
        <mxCell id="6EBKuIwhhkGmUyU1euO5-8" style="edgeStyle=orthogonalEdgeStyle;rounded=0;orthogonalLoop=1;jettySize=auto;html=1;entryX=0.5;entryY=0;entryDx=0;entryDy=0;" edge="1" parent="uBrB1XqXVofArpdhMEqw-1" source="6EBKuIwhhkGmUyU1euO5-4" target="6EBKuIwhhkGmUyU1euO5-7">
          <mxGeometry relative="1" as="geometry" />
        </mxCell>
        <mxCell id="6EBKuIwhhkGmUyU1euO5-4" value="&lt;font style=&quot;font-size: 9px;&quot;&gt;¿La nueva contraseña y la confirmación coinciden?&lt;/font&gt;" style="rhombus;whiteSpace=wrap;html=1;shadow=0;fontFamily=Helvetica;fontSize=12;align=center;strokeWidth=1;spacing=6;spacingTop=-4;" vertex="1" parent="uBrB1XqXVofArpdhMEqw-1">
          <mxGeometry x="160" y="470" width="120" height="90" as="geometry" />
        </mxCell>
        <mxCell id="6EBKuIwhhkGmUyU1euO5-6" value="No" style="edgeLabel;html=1;align=center;verticalAlign=middle;resizable=0;points=[];" connectable="0" vertex="1" parent="uBrB1XqXVofArpdhMEqw-1">
          <mxGeometry x="305" y="450" as="geometry">
            <mxPoint x="-5" y="47" as="offset" />
          </mxGeometry>
        </mxCell>
        <mxCell id="6EBKuIwhhkGmUyU1euO5-9" style="edgeStyle=orthogonalEdgeStyle;rounded=0;orthogonalLoop=1;jettySize=auto;html=1;entryX=0.5;entryY=1;entryDx=0;entryDy=0;" edge="1" parent="uBrB1XqXVofArpdhMEqw-1" source="6EBKuIwhhkGmUyU1euO5-7" target="uBrB1XqXVofArpdhMEqw-14">
          <mxGeometry relative="1" as="geometry">
            <mxPoint x="400" y="520" as="targetPoint" />
          </mxGeometry>
        </mxCell>
        <mxCell id="6EBKuIwhhkGmUyU1euO5-12" style="edgeStyle=orthogonalEdgeStyle;rounded=0;orthogonalLoop=1;jettySize=auto;html=1;entryX=0.5;entryY=0;entryDx=0;entryDy=0;" edge="1" parent="uBrB1XqXVofArpdhMEqw-1" source="6EBKuIwhhkGmUyU1euO5-7" target="uBrB1XqXVofArpdhMEqw-22">
          <mxGeometry relative="1" as="geometry" />
        </mxCell>
        <mxCell id="6EBKuIwhhkGmUyU1euO5-7" value="&lt;font style=&quot;font-size: 9px;&quot;&gt;¿La nueva contraseña y la confirmación coinciden?&lt;/font&gt;" style="rhombus;whiteSpace=wrap;html=1;shadow=0;fontFamily=Helvetica;fontSize=12;align=center;strokeWidth=1;spacing=6;spacingTop=-4;" vertex="1" parent="uBrB1XqXVofArpdhMEqw-1">
          <mxGeometry x="160" y="585" width="120" height="90" as="geometry" />
        </mxCell>
        <mxCell id="6EBKuIwhhkGmUyU1euO5-11" value="Sí" style="edgeLabel;html=1;align=center;verticalAlign=middle;resizable=0;points=[];" connectable="0" vertex="1" parent="uBrB1XqXVofArpdhMEqw-1">
          <mxGeometry x="250" y="456.66666666666663" as="geometry">
            <mxPoint x="-11" y="115" as="offset" />
          </mxGeometry>
        </mxCell>
        <mxCell id="6EBKuIwhhkGmUyU1euO5-13" style="edgeStyle=orthogonalEdgeStyle;rounded=0;orthogonalLoop=1;jettySize=auto;html=1;entryX=0;entryY=0.5;entryDx=0;entryDy=0;entryPerimeter=0;" edge="1" parent="uBrB1XqXVofArpdhMEqw-1" source="uBrB1XqXVofArpdhMEqw-22" target="uBrB1XqXVofArpdhMEqw-20">
          <mxGeometry relative="1" as="geometry" />
        </mxCell>
      </root>
    </mxGraphModel>
  </diagram>
  <diagram name="CU7" id="WIFXlsUHk6989JlzyRxx">
    <mxGraphModel grid="1" page="1" gridSize="10" guides="1" tooltips="1" connect="1" arrows="1" fold="1" pageScale="1" pageWidth="827" pageHeight="1169" math="0" shadow="0">
      <root>
        <mxCell id="Vvu318t3SBRmLDArxSL2-0" />
        <mxCell id="Vvu318t3SBRmLDArxSL2-1" parent="Vvu318t3SBRmLDArxSL2-0" />
        <mxCell id="Vvu318t3SBRmLDArxSL2-2" style="edgeStyle=orthogonalEdgeStyle;rounded=0;orthogonalLoop=1;jettySize=auto;html=1;" parent="Vvu318t3SBRmLDArxSL2-1" source="Vvu318t3SBRmLDArxSL2-3" target="Vvu318t3SBRmLDArxSL2-5" edge="1">
          <mxGeometry relative="1" as="geometry" />
        </mxCell>
        <mxCell id="Vvu318t3SBRmLDArxSL2-3" value="Iniciar sesión" style="rounded=1;whiteSpace=wrap;html=1;fontSize=12;glass=0;strokeWidth=1;shadow=0;" parent="Vvu318t3SBRmLDArxSL2-1" vertex="1">
          <mxGeometry x="160" y="80" width="120" height="40" as="geometry" />
        </mxCell>
        <mxCell id="Vvu318t3SBRmLDArxSL2-4" value="" style="edgeStyle=orthogonalEdgeStyle;rounded=0;orthogonalLoop=1;jettySize=auto;html=1;" parent="Vvu318t3SBRmLDArxSL2-1" source="Vvu318t3SBRmLDArxSL2-5" target="Vvu318t3SBRmLDArxSL2-19" edge="1">
          <mxGeometry relative="1" as="geometry" />
        </mxCell>
        <mxCell id="Vvu318t3SBRmLDArxSL2-5" value="Hacer click en &quot;Agregar vehículo&quot;" style="rounded=1;whiteSpace=wrap;html=1;fontSize=12;glass=0;strokeWidth=1;shadow=0;" parent="Vvu318t3SBRmLDArxSL2-1" vertex="1">
          <mxGeometry x="150" y="150" width="140" height="40" as="geometry" />
        </mxCell>
        <mxCell id="Vvu318t3SBRmLDArxSL2-13" value="Caso de uso N°7" style="text;html=1;align=center;verticalAlign=middle;resizable=0;points=[];autosize=1;strokeColor=none;fillColor=none;" parent="Vvu318t3SBRmLDArxSL2-1" vertex="1">
          <mxGeometry width="110" height="30" as="geometry" />
        </mxCell>
        <mxCell id="Vvu318t3SBRmLDArxSL2-14" style="edgeStyle=orthogonalEdgeStyle;rounded=0;orthogonalLoop=1;jettySize=auto;html=1;entryX=0.5;entryY=0;entryDx=0;entryDy=0;" parent="Vvu318t3SBRmLDArxSL2-1" source="Vvu318t3SBRmLDArxSL2-15" target="Vvu318t3SBRmLDArxSL2-3" edge="1">
          <mxGeometry relative="1" as="geometry" />
        </mxCell>
        <mxCell id="Vvu318t3SBRmLDArxSL2-15" value="" style="strokeWidth=2;html=1;shape=mxgraph.flowchart.start_2;whiteSpace=wrap;fillColor=#000000;" parent="Vvu318t3SBRmLDArxSL2-1" vertex="1">
          <mxGeometry x="210" y="30" width="20" height="20" as="geometry" />
        </mxCell>
        <mxCell id="Bw0KCkEiES5LkLkBKqvP-1" value="" style="edgeStyle=orthogonalEdgeStyle;rounded=0;orthogonalLoop=1;jettySize=auto;html=1;" edge="1" parent="Vvu318t3SBRmLDArxSL2-1" source="Vvu318t3SBRmLDArxSL2-17" target="Bw0KCkEiES5LkLkBKqvP-0">
          <mxGeometry relative="1" as="geometry" />
        </mxCell>
        <mxCell id="Vvu318t3SBRmLDArxSL2-17" value="Vehículo registrado con éxito" style="whiteSpace=wrap;html=1;rounded=1;glass=0;strokeWidth=1;shadow=0;" parent="Vvu318t3SBRmLDArxSL2-1" vertex="1">
          <mxGeometry x="160" y="350" width="120" height="60" as="geometry" />
        </mxCell>
        <mxCell id="Vvu318t3SBRmLDArxSL2-18" value="" style="edgeStyle=orthogonalEdgeStyle;rounded=0;orthogonalLoop=1;jettySize=auto;html=1;" parent="Vvu318t3SBRmLDArxSL2-1" source="Vvu318t3SBRmLDArxSL2-19" target="Vvu318t3SBRmLDArxSL2-23" edge="1">
          <mxGeometry relative="1" as="geometry" />
        </mxCell>
        <mxCell id="Vvu318t3SBRmLDArxSL2-19" value="Rellenar el formulario" style="whiteSpace=wrap;html=1;rounded=1;glass=0;strokeWidth=1;shadow=0;" parent="Vvu318t3SBRmLDArxSL2-1" vertex="1">
          <mxGeometry x="150" y="220" width="140" height="40" as="geometry" />
        </mxCell>
        <mxCell id="Vvu318t3SBRmLDArxSL2-20" value="&lt;br&gt;&lt;p&gt; Aparece una pantalla con los siguientes campos:&lt;/p&gt;&lt;p&gt;&lt;/p&gt;&lt;ul&gt;&lt;li&gt;Marca&lt;/li&gt;&lt;li&gt;Modelo&lt;/li&gt;&lt;li&gt;Año&lt;/li&gt;&lt;li&gt;Patente&lt;/li&gt;&lt;li&gt;Permiso de circulacion&lt;/li&gt;&lt;li&gt;SOAP&lt;/li&gt;&lt;li&gt;Revision tecnica&lt;/li&gt;&lt;/ul&gt;&lt;p&gt;&lt;/p&gt;&lt;div&gt;&lt;br&gt;&lt;/div&gt;" style="shape=note;whiteSpace=wrap;html=1;backgroundOutline=1;darkOpacity=0.05;size=17;align=left;" parent="Vvu318t3SBRmLDArxSL2-1" vertex="1">
          <mxGeometry x="-50" y="142.5" width="160" height="195" as="geometry" />
        </mxCell>
        <mxCell id="Vvu318t3SBRmLDArxSL2-21" value="" style="endArrow=none;dashed=1;html=1;rounded=0;exitX=0.995;exitY=0.502;exitDx=0;exitDy=0;exitPerimeter=0;" parent="Vvu318t3SBRmLDArxSL2-1" source="Vvu318t3SBRmLDArxSL2-20" target="Vvu318t3SBRmLDArxSL2-19" edge="1">
          <mxGeometry width="50" height="50" relative="1" as="geometry">
            <mxPoint x="240" y="200" as="sourcePoint" />
            <mxPoint x="290" y="150" as="targetPoint" />
          </mxGeometry>
        </mxCell>
        <mxCell id="Vvu318t3SBRmLDArxSL2-22" style="edgeStyle=orthogonalEdgeStyle;rounded=0;orthogonalLoop=1;jettySize=auto;html=1;entryX=0.5;entryY=0;entryDx=0;entryDy=0;" parent="Vvu318t3SBRmLDArxSL2-1" source="Vvu318t3SBRmLDArxSL2-23" edge="1">
          <mxGeometry relative="1" as="geometry">
            <mxPoint x="220" y="350" as="targetPoint" />
          </mxGeometry>
        </mxCell>
        <mxCell id="Vvu318t3SBRmLDArxSL2-23" value="Completar campos y seleccionar: &quot;Registrar vehículo&lt;span style=&quot;background-color: initial;&quot;&gt;&quot;&lt;/span&gt;" style="whiteSpace=wrap;html=1;rounded=1;glass=0;strokeWidth=1;shadow=0;" parent="Vvu318t3SBRmLDArxSL2-1" vertex="1">
          <mxGeometry x="150" y="280" width="140" height="50" as="geometry" />
        </mxCell>
        <mxCell id="Bw0KCkEiES5LkLkBKqvP-0" value="El sistema navega a ReadyuseScreen" style="whiteSpace=wrap;html=1;rounded=1;glass=0;strokeWidth=1;shadow=0;" vertex="1" parent="Vvu318t3SBRmLDArxSL2-1">
          <mxGeometry x="160" y="430" width="120" height="60" as="geometry" />
        </mxCell>
        <mxCell id="Bw0KCkEiES5LkLkBKqvP-2" value="" style="strokeWidth=2;html=1;shape=mxgraph.flowchart.start_2;whiteSpace=wrap;fillColor=#000000;" vertex="1" parent="Vvu318t3SBRmLDArxSL2-1">
          <mxGeometry x="210" y="530" width="20" height="20" as="geometry" />
        </mxCell>
        <mxCell id="Bw0KCkEiES5LkLkBKqvP-3" style="edgeStyle=orthogonalEdgeStyle;rounded=0;orthogonalLoop=1;jettySize=auto;html=1;entryX=0.5;entryY=0;entryDx=0;entryDy=0;entryPerimeter=0;" edge="1" parent="Vvu318t3SBRmLDArxSL2-1" source="Bw0KCkEiES5LkLkBKqvP-0" target="Bw0KCkEiES5LkLkBKqvP-2">
          <mxGeometry relative="1" as="geometry" />
        </mxCell>
      </root>
    </mxGraphModel>
  </diagram>
  <diagram name="CU8" id="rTvMaJ8dMBAhu23F86we">
    <mxGraphModel grid="1" page="1" gridSize="10" guides="1" tooltips="1" connect="1" arrows="1" fold="1" pageScale="1" pageWidth="827" pageHeight="1169" math="0" shadow="0">
      <root>
        <mxCell id="pz9dJXpkyCnYxAMt7NUo-0" />
        <mxCell id="pz9dJXpkyCnYxAMt7NUo-1" parent="pz9dJXpkyCnYxAMt7NUo-0" />
        <mxCell id="pD-q_2b3wqR_7rHZSADA-2" style="edgeStyle=orthogonalEdgeStyle;rounded=0;orthogonalLoop=1;jettySize=auto;html=1;" edge="1" parent="pz9dJXpkyCnYxAMt7NUo-1" source="pz9dJXpkyCnYxAMt7NUo-3" target="pD-q_2b3wqR_7rHZSADA-1">
          <mxGeometry relative="1" as="geometry" />
        </mxCell>
        <mxCell id="pz9dJXpkyCnYxAMt7NUo-3" value="Iniciar sesión" style="rounded=1;whiteSpace=wrap;html=1;fontSize=12;glass=0;strokeWidth=1;shadow=0;" parent="pz9dJXpkyCnYxAMt7NUo-1" vertex="1">
          <mxGeometry x="160" y="80" width="120" height="40" as="geometry" />
        </mxCell>
        <mxCell id="pz9dJXpkyCnYxAMt7NUo-4" value="" style="edgeStyle=orthogonalEdgeStyle;rounded=0;orthogonalLoop=1;jettySize=auto;html=1;" parent="pz9dJXpkyCnYxAMt7NUo-1" source="pz9dJXpkyCnYxAMt7NUo-5" target="pz9dJXpkyCnYxAMt7NUo-12" edge="1">
          <mxGeometry relative="1" as="geometry" />
        </mxCell>
        <mxCell id="pz9dJXpkyCnYxAMt7NUo-5" value="Hacer click en el vehículo registrado deseado" style="rounded=1;whiteSpace=wrap;html=1;fontSize=12;glass=0;strokeWidth=1;shadow=0;" parent="pz9dJXpkyCnYxAMt7NUo-1" vertex="1">
          <mxGeometry x="150" y="200" width="140" height="40" as="geometry" />
        </mxCell>
        <mxCell id="pz9dJXpkyCnYxAMt7NUo-6" value="Caso de uso N°8" style="text;html=1;align=center;verticalAlign=middle;resizable=0;points=[];autosize=1;strokeColor=none;fillColor=none;" parent="pz9dJXpkyCnYxAMt7NUo-1" vertex="1">
          <mxGeometry width="110" height="30" as="geometry" />
        </mxCell>
        <mxCell id="pz9dJXpkyCnYxAMt7NUo-7" style="edgeStyle=orthogonalEdgeStyle;rounded=0;orthogonalLoop=1;jettySize=auto;html=1;entryX=0.5;entryY=0;entryDx=0;entryDy=0;" parent="pz9dJXpkyCnYxAMt7NUo-1" source="pz9dJXpkyCnYxAMt7NUo-8" target="pz9dJXpkyCnYxAMt7NUo-3" edge="1">
          <mxGeometry relative="1" as="geometry" />
        </mxCell>
        <mxCell id="pz9dJXpkyCnYxAMt7NUo-8" value="" style="strokeWidth=2;html=1;shape=mxgraph.flowchart.start_2;whiteSpace=wrap;fillColor=#000000;" parent="pz9dJXpkyCnYxAMt7NUo-1" vertex="1">
          <mxGeometry x="210" y="30" width="20" height="20" as="geometry" />
        </mxCell>
        <mxCell id="pz9dJXpkyCnYxAMt7NUo-11" value="" style="edgeStyle=orthogonalEdgeStyle;rounded=0;orthogonalLoop=1;jettySize=auto;html=1;entryX=0.5;entryY=0;entryDx=0;entryDy=0;entryPerimeter=0;" parent="pz9dJXpkyCnYxAMt7NUo-1" source="pz9dJXpkyCnYxAMt7NUo-12" target="pz9dJXpkyCnYxAMt7NUo-18" edge="1">
          <mxGeometry relative="1" as="geometry">
            <mxPoint x="220" y="330" as="targetPoint" />
          </mxGeometry>
        </mxCell>
        <mxCell id="pz9dJXpkyCnYxAMt7NUo-12" value="El sistema muestra los datos del vehículo" style="whiteSpace=wrap;html=1;rounded=1;glass=0;strokeWidth=1;shadow=0;" parent="pz9dJXpkyCnYxAMt7NUo-1" vertex="1">
          <mxGeometry x="150" y="270" width="140" height="40" as="geometry" />
        </mxCell>
        <mxCell id="pz9dJXpkyCnYxAMt7NUo-18" value="" style="strokeWidth=2;html=1;shape=mxgraph.flowchart.start_2;whiteSpace=wrap;fillColor=#000000;" vertex="1" parent="pz9dJXpkyCnYxAMt7NUo-1">
          <mxGeometry x="210" y="340" width="20" height="20" as="geometry" />
        </mxCell>
        <mxCell id="pD-q_2b3wqR_7rHZSADA-3" style="edgeStyle=orthogonalEdgeStyle;rounded=0;orthogonalLoop=1;jettySize=auto;html=1;" edge="1" parent="pz9dJXpkyCnYxAMt7NUo-1" source="pD-q_2b3wqR_7rHZSADA-1" target="pz9dJXpkyCnYxAMt7NUo-5">
          <mxGeometry relative="1" as="geometry" />
        </mxCell>
        <mxCell id="pD-q_2b3wqR_7rHZSADA-1" value="Se ingresa a ReadyuseScreen" style="rounded=1;whiteSpace=wrap;html=1;fontSize=12;glass=0;strokeWidth=1;shadow=0;" vertex="1" parent="pz9dJXpkyCnYxAMt7NUo-1">
          <mxGeometry x="150" y="140" width="140" height="40" as="geometry" />
        </mxCell>
      </root>
    </mxGraphModel>
  </diagram>
  <diagram name="CU9" id="QOTUd8FYJuKpN0JkmWpl">
    <mxGraphModel grid="1" page="1" gridSize="10" guides="1" tooltips="1" connect="1" arrows="1" fold="1" pageScale="1" pageWidth="827" pageHeight="1169" math="0" shadow="0">
      <root>
        <mxCell id="eUA-_CAcsxBcVo_zjLbN-0" />
        <mxCell id="eUA-_CAcsxBcVo_zjLbN-1" parent="eUA-_CAcsxBcVo_zjLbN-0" />
        <mxCell id="eUA-_CAcsxBcVo_zjLbN-2" style="edgeStyle=orthogonalEdgeStyle;rounded=0;orthogonalLoop=1;jettySize=auto;html=1;" parent="eUA-_CAcsxBcVo_zjLbN-1" source="eUA-_CAcsxBcVo_zjLbN-3" target="eUA-_CAcsxBcVo_zjLbN-13" edge="1">
          <mxGeometry relative="1" as="geometry" />
        </mxCell>
        <mxCell id="eUA-_CAcsxBcVo_zjLbN-3" value="Iniciar sesión" style="rounded=1;whiteSpace=wrap;html=1;fontSize=12;glass=0;strokeWidth=1;shadow=0;" parent="eUA-_CAcsxBcVo_zjLbN-1" vertex="1">
          <mxGeometry x="160" y="80" width="120" height="40" as="geometry" />
        </mxCell>
        <mxCell id="eUA-_CAcsxBcVo_zjLbN-4" value="" style="edgeStyle=orthogonalEdgeStyle;rounded=0;orthogonalLoop=1;jettySize=auto;html=1;" parent="eUA-_CAcsxBcVo_zjLbN-1" source="eUA-_CAcsxBcVo_zjLbN-5" target="eUA-_CAcsxBcVo_zjLbN-10" edge="1">
          <mxGeometry relative="1" as="geometry" />
        </mxCell>
        <mxCell id="eUA-_CAcsxBcVo_zjLbN-5" value="Hacer click en el vehículo registrado deseado" style="rounded=1;whiteSpace=wrap;html=1;fontSize=12;glass=0;strokeWidth=1;shadow=0;" parent="eUA-_CAcsxBcVo_zjLbN-1" vertex="1">
          <mxGeometry x="150" y="200" width="140" height="40" as="geometry" />
        </mxCell>
        <mxCell id="eUA-_CAcsxBcVo_zjLbN-6" value="Caso de uso N°9" style="text;html=1;align=center;verticalAlign=middle;resizable=0;points=[];autosize=1;strokeColor=none;fillColor=none;" parent="eUA-_CAcsxBcVo_zjLbN-1" vertex="1">
          <mxGeometry width="110" height="30" as="geometry" />
        </mxCell>
        <mxCell id="eUA-_CAcsxBcVo_zjLbN-7" style="edgeStyle=orthogonalEdgeStyle;rounded=0;orthogonalLoop=1;jettySize=auto;html=1;entryX=0.5;entryY=0;entryDx=0;entryDy=0;" parent="eUA-_CAcsxBcVo_zjLbN-1" source="eUA-_CAcsxBcVo_zjLbN-8" target="eUA-_CAcsxBcVo_zjLbN-3" edge="1">
          <mxGeometry relative="1" as="geometry" />
        </mxCell>
        <mxCell id="eUA-_CAcsxBcVo_zjLbN-8" value="" style="strokeWidth=2;html=1;shape=mxgraph.flowchart.start_2;whiteSpace=wrap;fillColor=#000000;" parent="eUA-_CAcsxBcVo_zjLbN-1" vertex="1">
          <mxGeometry x="210" y="30" width="20" height="20" as="geometry" />
        </mxCell>
        <mxCell id="mIt7DEesZX27V8q5qNMt-2" style="edgeStyle=orthogonalEdgeStyle;rounded=0;orthogonalLoop=1;jettySize=auto;html=1;entryX=0.5;entryY=0;entryDx=0;entryDy=0;" edge="1" parent="eUA-_CAcsxBcVo_zjLbN-1" source="eUA-_CAcsxBcVo_zjLbN-10" target="q0kR_7iPUpnvjVZo4uvX-2">
          <mxGeometry relative="1" as="geometry" />
        </mxCell>
        <mxCell id="eUA-_CAcsxBcVo_zjLbN-10" value="Hacer click en &quot;Editar vehículo&quot;" style="whiteSpace=wrap;html=1;rounded=1;glass=0;strokeWidth=1;shadow=0;" parent="eUA-_CAcsxBcVo_zjLbN-1" vertex="1">
          <mxGeometry x="150" y="270" width="140" height="40" as="geometry" />
        </mxCell>
        <mxCell id="eUA-_CAcsxBcVo_zjLbN-12" style="edgeStyle=orthogonalEdgeStyle;rounded=0;orthogonalLoop=1;jettySize=auto;html=1;" parent="eUA-_CAcsxBcVo_zjLbN-1" source="eUA-_CAcsxBcVo_zjLbN-13" target="eUA-_CAcsxBcVo_zjLbN-5" edge="1">
          <mxGeometry relative="1" as="geometry" />
        </mxCell>
        <mxCell id="eUA-_CAcsxBcVo_zjLbN-13" value="Se ingresa a ReadyuseScreen" style="rounded=1;whiteSpace=wrap;html=1;fontSize=12;glass=0;strokeWidth=1;shadow=0;" parent="eUA-_CAcsxBcVo_zjLbN-1" vertex="1">
          <mxGeometry x="150" y="140" width="140" height="40" as="geometry" />
        </mxCell>
        <mxCell id="mIt7DEesZX27V8q5qNMt-4" style="edgeStyle=orthogonalEdgeStyle;rounded=0;orthogonalLoop=1;jettySize=auto;html=1;" edge="1" parent="eUA-_CAcsxBcVo_zjLbN-1" source="q0kR_7iPUpnvjVZo4uvX-2" target="mIt7DEesZX27V8q5qNMt-3">
          <mxGeometry relative="1" as="geometry" />
        </mxCell>
        <mxCell id="q0kR_7iPUpnvjVZo4uvX-2" value="Sistema muestra los datos del vehiculo disponibles para editar" style="whiteSpace=wrap;html=1;rounded=1;glass=0;strokeWidth=1;shadow=0;" vertex="1" parent="eUA-_CAcsxBcVo_zjLbN-1">
          <mxGeometry x="150" y="330" width="140" height="50" as="geometry" />
        </mxCell>
        <mxCell id="mIt7DEesZX27V8q5qNMt-0" value="&lt;div&gt;Campos disponibles para edición:&lt;/div&gt;&lt;div&gt;&lt;br&gt;&lt;/div&gt;&lt;div&gt;Patente&lt;/div&gt;&lt;div&gt;Año&lt;/div&gt;&lt;div&gt;&lt;br&gt;&lt;/div&gt;" style="shape=note;whiteSpace=wrap;html=1;backgroundOutline=1;darkOpacity=0.05;size=17;align=left;" vertex="1" parent="eUA-_CAcsxBcVo_zjLbN-1">
          <mxGeometry x="-10" y="306.25" width="130" height="97.5" as="geometry" />
        </mxCell>
        <mxCell id="mIt7DEesZX27V8q5qNMt-1" value="" style="endArrow=none;dashed=1;html=1;rounded=0;" edge="1" parent="eUA-_CAcsxBcVo_zjLbN-1" source="mIt7DEesZX27V8q5qNMt-0" target="q0kR_7iPUpnvjVZo4uvX-2">
          <mxGeometry width="50" height="50" relative="1" as="geometry">
            <mxPoint x="150" y="220" as="sourcePoint" />
            <mxPoint x="200" y="170" as="targetPoint" />
          </mxGeometry>
        </mxCell>
        <mxCell id="mIt7DEesZX27V8q5qNMt-7" style="edgeStyle=orthogonalEdgeStyle;rounded=0;orthogonalLoop=1;jettySize=auto;html=1;" edge="1" parent="eUA-_CAcsxBcVo_zjLbN-1" source="mIt7DEesZX27V8q5qNMt-3" target="mIt7DEesZX27V8q5qNMt-5">
          <mxGeometry relative="1" as="geometry" />
        </mxCell>
        <mxCell id="mIt7DEesZX27V8q5qNMt-3" value="El usuario modifica los campos necesarios y confirma la acción" style="whiteSpace=wrap;html=1;rounded=1;glass=0;strokeWidth=1;shadow=0;" vertex="1" parent="eUA-_CAcsxBcVo_zjLbN-1">
          <mxGeometry x="150" y="400" width="140" height="50" as="geometry" />
        </mxCell>
        <mxCell id="mIt7DEesZX27V8q5qNMt-5" value="" style="strokeWidth=2;html=1;shape=mxgraph.flowchart.start_2;whiteSpace=wrap;fillColor=#000000;" vertex="1" parent="eUA-_CAcsxBcVo_zjLbN-1">
          <mxGeometry x="210" y="480" width="20" height="20" as="geometry" />
        </mxCell>
      </root>
    </mxGraphModel>
  </diagram>
  <diagram name="CU16" id="9rKwumie3saiVtXyBGnE">
    <mxGraphModel grid="1" page="1" gridSize="10" guides="1" tooltips="1" connect="1" arrows="1" fold="1" pageScale="1" pageWidth="827" pageHeight="1169" math="0" shadow="0">
      <root>
        <mxCell id="NOPg8V9I7KhBo2kLEVyz-0" />
        <mxCell id="NOPg8V9I7KhBo2kLEVyz-1" parent="NOPg8V9I7KhBo2kLEVyz-0" />
        <mxCell id="NOPg8V9I7KhBo2kLEVyz-2" style="edgeStyle=orthogonalEdgeStyle;rounded=0;orthogonalLoop=1;jettySize=auto;html=1;" parent="NOPg8V9I7KhBo2kLEVyz-1" source="NOPg8V9I7KhBo2kLEVyz-3" target="NOPg8V9I7KhBo2kLEVyz-12" edge="1">
          <mxGeometry relative="1" as="geometry" />
        </mxCell>
        <mxCell id="NOPg8V9I7KhBo2kLEVyz-3" value="Iniciar sesión" style="rounded=1;whiteSpace=wrap;html=1;fontSize=12;glass=0;strokeWidth=1;shadow=0;" parent="NOPg8V9I7KhBo2kLEVyz-1" vertex="1">
          <mxGeometry x="160" y="80" width="120" height="40" as="geometry" />
        </mxCell>
        <mxCell id="NOPg8V9I7KhBo2kLEVyz-4" value="" style="edgeStyle=orthogonalEdgeStyle;rounded=0;orthogonalLoop=1;jettySize=auto;html=1;" parent="NOPg8V9I7KhBo2kLEVyz-1" source="NOPg8V9I7KhBo2kLEVyz-5" target="NOPg8V9I7KhBo2kLEVyz-10" edge="1">
          <mxGeometry relative="1" as="geometry" />
        </mxCell>
        <mxCell id="NOPg8V9I7KhBo2kLEVyz-5" value="Hacer click en el vehículo registrado deseado" style="rounded=1;whiteSpace=wrap;html=1;fontSize=12;glass=0;strokeWidth=1;shadow=0;" parent="NOPg8V9I7KhBo2kLEVyz-1" vertex="1">
          <mxGeometry x="150" y="200" width="140" height="40" as="geometry" />
        </mxCell>
        <mxCell id="NOPg8V9I7KhBo2kLEVyz-6" value="Caso de uso N°16" style="text;html=1;align=center;verticalAlign=middle;resizable=0;points=[];autosize=1;strokeColor=none;fillColor=none;" parent="NOPg8V9I7KhBo2kLEVyz-1" vertex="1">
          <mxGeometry x="-5" width="120" height="30" as="geometry" />
        </mxCell>
        <mxCell id="NOPg8V9I7KhBo2kLEVyz-7" style="edgeStyle=orthogonalEdgeStyle;rounded=0;orthogonalLoop=1;jettySize=auto;html=1;entryX=0.5;entryY=0;entryDx=0;entryDy=0;" parent="NOPg8V9I7KhBo2kLEVyz-1" source="NOPg8V9I7KhBo2kLEVyz-8" target="NOPg8V9I7KhBo2kLEVyz-3" edge="1">
          <mxGeometry relative="1" as="geometry" />
        </mxCell>
        <mxCell id="NOPg8V9I7KhBo2kLEVyz-8" value="" style="strokeWidth=2;html=1;shape=mxgraph.flowchart.start_2;whiteSpace=wrap;fillColor=#000000;" parent="NOPg8V9I7KhBo2kLEVyz-1" vertex="1">
          <mxGeometry x="210" y="30" width="20" height="20" as="geometry" />
        </mxCell>
        <mxCell id="NOPg8V9I7KhBo2kLEVyz-9" style="edgeStyle=orthogonalEdgeStyle;rounded=0;orthogonalLoop=1;jettySize=auto;html=1;entryX=0.5;entryY=0;entryDx=0;entryDy=0;" parent="NOPg8V9I7KhBo2kLEVyz-1" source="NOPg8V9I7KhBo2kLEVyz-10" target="NOPg8V9I7KhBo2kLEVyz-14" edge="1">
          <mxGeometry relative="1" as="geometry" />
        </mxCell>
        <mxCell id="NOPg8V9I7KhBo2kLEVyz-10" value="Hacer click en &quot;Chatbot&quot;" style="whiteSpace=wrap;html=1;rounded=1;glass=0;strokeWidth=1;shadow=0;" parent="NOPg8V9I7KhBo2kLEVyz-1" vertex="1">
          <mxGeometry x="150" y="270" width="140" height="40" as="geometry" />
        </mxCell>
        <mxCell id="NOPg8V9I7KhBo2kLEVyz-11" style="edgeStyle=orthogonalEdgeStyle;rounded=0;orthogonalLoop=1;jettySize=auto;html=1;" parent="NOPg8V9I7KhBo2kLEVyz-1" source="NOPg8V9I7KhBo2kLEVyz-12" target="NOPg8V9I7KhBo2kLEVyz-5" edge="1">
          <mxGeometry relative="1" as="geometry" />
        </mxCell>
        <mxCell id="NOPg8V9I7KhBo2kLEVyz-12" value="Se ingresa a ReadyuseScreen" style="rounded=1;whiteSpace=wrap;html=1;fontSize=12;glass=0;strokeWidth=1;shadow=0;" parent="NOPg8V9I7KhBo2kLEVyz-1" vertex="1">
          <mxGeometry x="150" y="140" width="140" height="40" as="geometry" />
        </mxCell>
        <mxCell id="NOPg8V9I7KhBo2kLEVyz-13" style="edgeStyle=orthogonalEdgeStyle;rounded=0;orthogonalLoop=1;jettySize=auto;html=1;" parent="NOPg8V9I7KhBo2kLEVyz-1" source="NOPg8V9I7KhBo2kLEVyz-14" target="NOPg8V9I7KhBo2kLEVyz-18" edge="1">
          <mxGeometry relative="1" as="geometry" />
        </mxCell>
        <mxCell id="NOPg8V9I7KhBo2kLEVyz-14" value="Escribir consulta y hacer click en botón &quot;Enviar&quot;" style="whiteSpace=wrap;html=1;rounded=1;glass=0;strokeWidth=1;shadow=0;" parent="NOPg8V9I7KhBo2kLEVyz-1" vertex="1">
          <mxGeometry x="150" y="330" width="140" height="50" as="geometry" />
        </mxCell>
        <mxCell id="NOPg8V9I7KhBo2kLEVyz-15" value="&lt;div style=&quot;text-align: center;&quot;&gt;&lt;font style=&quot;font-size: 12px;&quot;&gt;La IA personaliza sus respuestas según el vehículo seleccionado, utilizando los datos asociados (como año, patente, historial de mantenimiento, etc.).&lt;/font&gt;&lt;br&gt;&lt;/div&gt;" style="shape=note;whiteSpace=wrap;html=1;backgroundOutline=1;darkOpacity=0.05;size=17;align=left;" parent="NOPg8V9I7KhBo2kLEVyz-1" vertex="1">
          <mxGeometry x="-20" y="273.13" width="150" height="163.75" as="geometry" />
        </mxCell>
        <mxCell id="NOPg8V9I7KhBo2kLEVyz-16" value="" style="endArrow=none;dashed=1;html=1;rounded=0;" parent="NOPg8V9I7KhBo2kLEVyz-1" source="NOPg8V9I7KhBo2kLEVyz-15" target="NOPg8V9I7KhBo2kLEVyz-14" edge="1">
          <mxGeometry width="50" height="50" relative="1" as="geometry">
            <mxPoint x="150" y="220" as="sourcePoint" />
            <mxPoint x="200" y="170" as="targetPoint" />
          </mxGeometry>
        </mxCell>
        <mxCell id="bkLoc7xg1OSxqSJguS0s-4" style="edgeStyle=orthogonalEdgeStyle;rounded=0;orthogonalLoop=1;jettySize=auto;html=1;entryX=0.5;entryY=0;entryDx=0;entryDy=0;" edge="1" parent="NOPg8V9I7KhBo2kLEVyz-1" source="NOPg8V9I7KhBo2kLEVyz-18" target="bkLoc7xg1OSxqSJguS0s-2">
          <mxGeometry relative="1" as="geometry" />
        </mxCell>
        <mxCell id="NOPg8V9I7KhBo2kLEVyz-18" value="El sistema envía el mensaje al motor de IA" style="whiteSpace=wrap;html=1;rounded=1;glass=0;strokeWidth=1;shadow=0;" parent="NOPg8V9I7KhBo2kLEVyz-1" vertex="1">
          <mxGeometry x="150" y="400" width="140" height="50" as="geometry" />
        </mxCell>
        <mxCell id="NOPg8V9I7KhBo2kLEVyz-19" value="" style="strokeWidth=2;html=1;shape=mxgraph.flowchart.start_2;whiteSpace=wrap;fillColor=#000000;" parent="NOPg8V9I7KhBo2kLEVyz-1" vertex="1">
          <mxGeometry x="210" y="650" width="20" height="20" as="geometry" />
        </mxCell>
        <mxCell id="O2dWU3eEWvHx2flJC8gh-1" style="edgeStyle=orthogonalEdgeStyle;rounded=0;orthogonalLoop=1;jettySize=auto;html=1;" edge="1" parent="NOPg8V9I7KhBo2kLEVyz-1" source="bkLoc7xg1OSxqSJguS0s-2" target="O2dWU3eEWvHx2flJC8gh-0">
          <mxGeometry relative="1" as="geometry" />
        </mxCell>
        <mxCell id="bkLoc7xg1OSxqSJguS0s-2" value="La IA procesa el mensaje y responde" style="whiteSpace=wrap;html=1;rounded=1;glass=0;strokeWidth=1;shadow=0;" vertex="1" parent="NOPg8V9I7KhBo2kLEVyz-1">
          <mxGeometry x="150" y="470" width="140" height="50" as="geometry" />
        </mxCell>
        <mxCell id="O2dWU3eEWvHx2flJC8gh-2" style="edgeStyle=orthogonalEdgeStyle;rounded=0;orthogonalLoop=1;jettySize=auto;html=1;entryX=1;entryY=0.5;entryDx=0;entryDy=0;" edge="1" parent="NOPg8V9I7KhBo2kLEVyz-1" source="O2dWU3eEWvHx2flJC8gh-0" target="NOPg8V9I7KhBo2kLEVyz-14">
          <mxGeometry relative="1" as="geometry">
            <Array as="points">
              <mxPoint x="320" y="585" />
              <mxPoint x="320" y="355" />
            </Array>
          </mxGeometry>
        </mxCell>
        <mxCell id="O2dWU3eEWvHx2flJC8gh-0" value="&lt;font size=&quot;1&quot;&gt;¿Desea hacer otra consulta?&lt;/font&gt;" style="rhombus;whiteSpace=wrap;html=1;shadow=0;fontFamily=Helvetica;fontSize=12;align=center;strokeWidth=1;spacing=6;spacingTop=-4;" vertex="1" parent="NOPg8V9I7KhBo2kLEVyz-1">
          <mxGeometry x="160" y="540" width="120" height="90" as="geometry" />
        </mxCell>
        <mxCell id="O2dWU3eEWvHx2flJC8gh-4" style="edgeStyle=orthogonalEdgeStyle;rounded=0;orthogonalLoop=1;jettySize=auto;html=1;entryX=0.5;entryY=0;entryDx=0;entryDy=0;entryPerimeter=0;" edge="1" parent="NOPg8V9I7KhBo2kLEVyz-1" source="O2dWU3eEWvHx2flJC8gh-0" target="NOPg8V9I7KhBo2kLEVyz-19">
          <mxGeometry relative="1" as="geometry" />
        </mxCell>
      </root>
    </mxGraphModel>
  </diagram>
  <diagram name="CU19" id="VVbwGRHzUnmbzQxWUV-e">
    <mxGraphModel grid="1" page="1" gridSize="10" guides="1" tooltips="1" connect="1" arrows="1" fold="1" pageScale="1" pageWidth="827" pageHeight="1169" math="0" shadow="0">
      <root>
        <mxCell id="uWP_QmKzfWfGoElawNT4-0" />
        <mxCell id="uWP_QmKzfWfGoElawNT4-1" parent="uWP_QmKzfWfGoElawNT4-0" />
        <mxCell id="uWP_QmKzfWfGoElawNT4-2" style="edgeStyle=orthogonalEdgeStyle;rounded=0;orthogonalLoop=1;jettySize=auto;html=1;" parent="uWP_QmKzfWfGoElawNT4-1" source="uWP_QmKzfWfGoElawNT4-3" target="uWP_QmKzfWfGoElawNT4-12" edge="1">
          <mxGeometry relative="1" as="geometry" />
        </mxCell>
        <mxCell id="uWP_QmKzfWfGoElawNT4-3" value="Iniciar sesión con credenciales de admin" style="rounded=1;whiteSpace=wrap;html=1;fontSize=12;glass=0;strokeWidth=1;shadow=0;" parent="uWP_QmKzfWfGoElawNT4-1" vertex="1">
          <mxGeometry x="160" y="80" width="120" height="40" as="geometry" />
        </mxCell>
        <mxCell id="uWP_QmKzfWfGoElawNT4-4" value="" style="edgeStyle=orthogonalEdgeStyle;rounded=0;orthogonalLoop=1;jettySize=auto;html=1;" parent="uWP_QmKzfWfGoElawNT4-1" source="uWP_QmKzfWfGoElawNT4-5" target="uWP_QmKzfWfGoElawNT4-10" edge="1">
          <mxGeometry relative="1" as="geometry" />
        </mxCell>
        <mxCell id="uWP_QmKzfWfGoElawNT4-5" value="Se hace click en el reporte deseado" style="rounded=1;whiteSpace=wrap;html=1;fontSize=12;glass=0;strokeWidth=1;shadow=0;" parent="uWP_QmKzfWfGoElawNT4-1" vertex="1">
          <mxGeometry x="150" y="200" width="140" height="40" as="geometry" />
        </mxCell>
        <mxCell id="uWP_QmKzfWfGoElawNT4-6" value="Caso de uso N°19" style="text;html=1;align=center;verticalAlign=middle;resizable=0;points=[];autosize=1;strokeColor=none;fillColor=none;" parent="uWP_QmKzfWfGoElawNT4-1" vertex="1">
          <mxGeometry x="-5" width="120" height="30" as="geometry" />
        </mxCell>
        <mxCell id="uWP_QmKzfWfGoElawNT4-7" style="edgeStyle=orthogonalEdgeStyle;rounded=0;orthogonalLoop=1;jettySize=auto;html=1;entryX=0.5;entryY=0;entryDx=0;entryDy=0;" parent="uWP_QmKzfWfGoElawNT4-1" source="uWP_QmKzfWfGoElawNT4-8" target="uWP_QmKzfWfGoElawNT4-3" edge="1">
          <mxGeometry relative="1" as="geometry" />
        </mxCell>
        <mxCell id="uWP_QmKzfWfGoElawNT4-8" value="" style="strokeWidth=2;html=1;shape=mxgraph.flowchart.start_2;whiteSpace=wrap;fillColor=#000000;" parent="uWP_QmKzfWfGoElawNT4-1" vertex="1">
          <mxGeometry x="210" y="30" width="20" height="20" as="geometry" />
        </mxCell>
        <mxCell id="uWP_QmKzfWfGoElawNT4-9" style="edgeStyle=orthogonalEdgeStyle;rounded=0;orthogonalLoop=1;jettySize=auto;html=1;entryX=0.5;entryY=0;entryDx=0;entryDy=0;" parent="uWP_QmKzfWfGoElawNT4-1" source="uWP_QmKzfWfGoElawNT4-10" target="uWP_QmKzfWfGoElawNT4-23" edge="1">
          <mxGeometry relative="1" as="geometry">
            <mxPoint x="220" y="330" as="targetPoint" />
            <Array as="points" />
          </mxGeometry>
        </mxCell>
        <mxCell id="uWP_QmKzfWfGoElawNT4-10" value="El sistema descarga el reporte en PDF en el dispositivo" style="whiteSpace=wrap;html=1;rounded=1;glass=0;strokeWidth=1;shadow=0;" parent="uWP_QmKzfWfGoElawNT4-1" vertex="1">
          <mxGeometry x="150" y="270" width="140" height="50" as="geometry" />
        </mxCell>
        <mxCell id="uWP_QmKzfWfGoElawNT4-11" style="edgeStyle=orthogonalEdgeStyle;rounded=0;orthogonalLoop=1;jettySize=auto;html=1;" parent="uWP_QmKzfWfGoElawNT4-1" source="uWP_QmKzfWfGoElawNT4-12" target="uWP_QmKzfWfGoElawNT4-5" edge="1">
          <mxGeometry relative="1" as="geometry" />
        </mxCell>
        <mxCell id="uWP_QmKzfWfGoElawNT4-12" value="Se ingresa al apartado para descargar los reportes" style="rounded=1;whiteSpace=wrap;html=1;fontSize=12;glass=0;strokeWidth=1;shadow=0;" parent="uWP_QmKzfWfGoElawNT4-1" vertex="1">
          <mxGeometry x="150" y="140" width="140" height="40" as="geometry" />
        </mxCell>
        <mxCell id="uWP_QmKzfWfGoElawNT4-15" value="&lt;div style=&quot;text-align: center;&quot;&gt;&lt;font style=&quot;font-size: 12px;&quot;&gt;Las opciones incluyen: Ver total de usuarios, Ver chats por usuario, ver vehiculos por usuario.&lt;/font&gt;&lt;br&gt;&lt;/div&gt;" style="shape=note;whiteSpace=wrap;html=1;backgroundOutline=1;darkOpacity=0.05;size=17;align=left;" parent="uWP_QmKzfWfGoElawNT4-1" vertex="1">
          <mxGeometry x="-30" y="138.13" width="150" height="163.75" as="geometry" />
        </mxCell>
        <mxCell id="uWP_QmKzfWfGoElawNT4-16" value="" style="endArrow=none;dashed=1;html=1;rounded=0;" parent="uWP_QmKzfWfGoElawNT4-1" source="uWP_QmKzfWfGoElawNT4-15" target="uWP_QmKzfWfGoElawNT4-5" edge="1">
          <mxGeometry width="50" height="50" relative="1" as="geometry">
            <mxPoint x="150" y="220" as="sourcePoint" />
            <mxPoint x="200" y="170" as="targetPoint" />
          </mxGeometry>
        </mxCell>
        <mxCell id="uWP_QmKzfWfGoElawNT4-19" value="" style="strokeWidth=2;html=1;shape=mxgraph.flowchart.start_2;whiteSpace=wrap;fillColor=#000000;" parent="uWP_QmKzfWfGoElawNT4-1" vertex="1">
          <mxGeometry x="210" y="460" width="20" height="20" as="geometry" />
        </mxCell>
        <mxCell id="E0yEjXJRFNONqV8K0jw8-1" style="edgeStyle=orthogonalEdgeStyle;rounded=0;orthogonalLoop=1;jettySize=auto;html=1;entryX=1;entryY=0.5;entryDx=0;entryDy=0;" edge="1" parent="uWP_QmKzfWfGoElawNT4-1" source="uWP_QmKzfWfGoElawNT4-23" target="uWP_QmKzfWfGoElawNT4-5">
          <mxGeometry relative="1" as="geometry">
            <Array as="points">
              <mxPoint x="310" y="385" />
              <mxPoint x="310" y="220" />
            </Array>
          </mxGeometry>
        </mxCell>
        <mxCell id="uWP_QmKzfWfGoElawNT4-23" value="&lt;font size=&quot;1&quot;&gt;¿Se desea descargar otro PDF?&lt;/font&gt;" style="rhombus;whiteSpace=wrap;html=1;shadow=0;fontFamily=Helvetica;fontSize=12;align=center;strokeWidth=1;spacing=6;spacingTop=-4;" parent="uWP_QmKzfWfGoElawNT4-1" vertex="1">
          <mxGeometry x="160" y="340" width="120" height="90" as="geometry" />
        </mxCell>
        <mxCell id="uWP_QmKzfWfGoElawNT4-24" style="edgeStyle=orthogonalEdgeStyle;rounded=0;orthogonalLoop=1;jettySize=auto;html=1;entryX=0.5;entryY=0;entryDx=0;entryDy=0;entryPerimeter=0;" parent="uWP_QmKzfWfGoElawNT4-1" source="uWP_QmKzfWfGoElawNT4-23" target="uWP_QmKzfWfGoElawNT4-19" edge="1">
          <mxGeometry relative="1" as="geometry" />
        </mxCell>
      </root>
    </mxGraphModel>
  </diagram>
</mxfile>
